<mxfile host="app.diagrams.net" modified="2023-06-10T17:19:54.398Z" agent="Mozilla/5.0 (Windows NT 10.0; Win64; x64) AppleWebKit/537.36 (KHTML, like Gecko) Chrome/114.0.0.0 Safari/537.36" etag="vgLrVaqQ_Vgf7eBKEllK" version="21.3.8" type="device">
  <diagram name="Page-1" id="uQT_GbrkxsSCZGt3uKxD">
    <mxGraphModel dx="1597" dy="871" grid="1" gridSize="10" guides="1" tooltips="1" connect="1" arrows="1" fold="1" page="1" pageScale="1" pageWidth="850" pageHeight="1100" math="0" shadow="0">
      <root>
        <mxCell id="0" />
        <mxCell id="1" parent="0" />
        <mxCell id="D19-k-0pD9ICi_6Iwy2H-1" value="Employee" style="shape=umlActor;verticalLabelPosition=bottom;verticalAlign=middle;html=1;outlineConnect=0;" parent="1" vertex="1">
          <mxGeometry x="190" y="140" width="30" height="60" as="geometry" />
        </mxCell>
        <mxCell id="D19-k-0pD9ICi_6Iwy2H-2" value="Manage" style="shape=umlActor;verticalLabelPosition=bottom;verticalAlign=middle;html=1;outlineConnect=0;" parent="1" vertex="1">
          <mxGeometry x="185" y="500" width="30" height="60" as="geometry" />
        </mxCell>
        <mxCell id="D19-k-0pD9ICi_6Iwy2H-10" value="Customer" style="shape=umlActor;verticalLabelPosition=bottom;verticalAlign=middle;html=1;" parent="1" vertex="1">
          <mxGeometry x="1260" y="510" width="30" height="60" as="geometry" />
        </mxCell>
        <mxCell id="a8G3BKCDFOk0z6Pbxj2P-1" value="" style="html=1;whiteSpace=wrap;" parent="1" vertex="1">
          <mxGeometry x="290" width="920" height="710" as="geometry" />
        </mxCell>
        <mxCell id="a8G3BKCDFOk0z6Pbxj2P-3" value="Product price" style="ellipse;whiteSpace=wrap;html=1;verticalAlign=middle;fontSize=21;" parent="1" vertex="1">
          <mxGeometry x="610" y="250" width="120" height="80" as="geometry" />
        </mxCell>
        <mxCell id="a8G3BKCDFOk0z6Pbxj2P-5" value="" style="endArrow=classic;html=1;rounded=0;entryX=0;entryY=0.5;entryDx=0;entryDy=0;" parent="1" target="a8G3BKCDFOk0z6Pbxj2P-3" edge="1">
          <mxGeometry width="50" height="50" relative="1" as="geometry">
            <mxPoint x="220" y="160" as="sourcePoint" />
            <mxPoint x="420" y="260" as="targetPoint" />
          </mxGeometry>
        </mxCell>
        <mxCell id="a8G3BKCDFOk0z6Pbxj2P-6" value="&lt;font style=&quot;font-size: 20px;&quot;&gt;Product&lt;br&gt;Management&lt;/font&gt;" style="ellipse;whiteSpace=wrap;html=1;verticalAlign=middle;" parent="1" vertex="1">
          <mxGeometry x="540" y="450" width="140" height="100" as="geometry" />
        </mxCell>
        <mxCell id="a8G3BKCDFOk0z6Pbxj2P-7" value="" style="endArrow=classic;html=1;rounded=0;entryX=0;entryY=0.5;entryDx=0;entryDy=0;exitX=1;exitY=0.3333333333333333;exitDx=0;exitDy=0;exitPerimeter=0;" parent="1" source="D19-k-0pD9ICi_6Iwy2H-2" target="a8G3BKCDFOk0z6Pbxj2P-6" edge="1">
          <mxGeometry width="50" height="50" relative="1" as="geometry">
            <mxPoint x="230" y="460" as="sourcePoint" />
            <mxPoint x="460" y="380" as="targetPoint" />
          </mxGeometry>
        </mxCell>
        <mxCell id="a8G3BKCDFOk0z6Pbxj2P-9" value="&lt;font style=&quot;font-size: 20px;&quot;&gt;Provide&lt;br&gt;&amp;nbsp;Product Information&lt;/font&gt;" style="ellipse;whiteSpace=wrap;html=1;verticalAlign=middle;" parent="1" vertex="1">
          <mxGeometry x="380" y="370" width="155" height="90" as="geometry" />
        </mxCell>
        <mxCell id="a8G3BKCDFOk0z6Pbxj2P-10" value="" style="endArrow=classic;html=1;rounded=0;entryX=0;entryY=0.5;entryDx=0;entryDy=0;exitX=1;exitY=0.3333333333333333;exitDx=0;exitDy=0;exitPerimeter=0;" parent="1" source="D19-k-0pD9ICi_6Iwy2H-1" target="a8G3BKCDFOk0z6Pbxj2P-9" edge="1">
          <mxGeometry width="50" height="50" relative="1" as="geometry">
            <mxPoint x="220" y="160" as="sourcePoint" />
            <mxPoint x="280" y="110" as="targetPoint" />
          </mxGeometry>
        </mxCell>
        <mxCell id="a8G3BKCDFOk0z6Pbxj2P-11" value="" style="endArrow=classic;html=1;rounded=0;entryX=0;entryY=0.5;entryDx=0;entryDy=0;" parent="1" target="a8G3BKCDFOk0z6Pbxj2P-12" edge="1">
          <mxGeometry width="50" height="50" relative="1" as="geometry">
            <mxPoint x="220" y="160" as="sourcePoint" />
            <mxPoint x="300" y="70" as="targetPoint" />
          </mxGeometry>
        </mxCell>
        <mxCell id="a8G3BKCDFOk0z6Pbxj2P-12" value="&lt;font style=&quot;font-size: 20px;&quot;&gt;Create Order&lt;/font&gt;" style="ellipse;whiteSpace=wrap;html=1;" parent="1" vertex="1">
          <mxGeometry x="610" y="345" width="130" height="90" as="geometry" />
        </mxCell>
        <mxCell id="a8G3BKCDFOk0z6Pbxj2P-13" value="Employee Manager" style="ellipse;whiteSpace=wrap;html=1;verticalAlign=middle;fontSize=21;" parent="1" vertex="1">
          <mxGeometry x="570" y="580" width="130" height="90" as="geometry" />
        </mxCell>
        <mxCell id="a8G3BKCDFOk0z6Pbxj2P-14" value="" style="endArrow=classic;html=1;rounded=0;entryX=0;entryY=0.5;entryDx=0;entryDy=0;exitX=1;exitY=0.3333333333333333;exitDx=0;exitDy=0;exitPerimeter=0;" parent="1" source="D19-k-0pD9ICi_6Iwy2H-2" target="a8G3BKCDFOk0z6Pbxj2P-13" edge="1">
          <mxGeometry width="50" height="50" relative="1" as="geometry">
            <mxPoint x="220" y="460" as="sourcePoint" />
            <mxPoint x="460" y="585" as="targetPoint" />
          </mxGeometry>
        </mxCell>
        <mxCell id="a8G3BKCDFOk0z6Pbxj2P-15" value="&lt;font style=&quot;font-size: 20px;&quot;&gt;Inventory Management&lt;/font&gt;" style="ellipse;whiteSpace=wrap;html=1;verticalAlign=middle;" parent="1" vertex="1">
          <mxGeometry x="355" y="600" width="140" height="95" as="geometry" />
        </mxCell>
        <mxCell id="a8G3BKCDFOk0z6Pbxj2P-16" value="" style="endArrow=classic;html=1;rounded=0;entryX=0;entryY=0.5;entryDx=0;entryDy=0;exitX=1;exitY=0.3333333333333333;exitDx=0;exitDy=0;exitPerimeter=0;" parent="1" source="D19-k-0pD9ICi_6Iwy2H-2" target="a8G3BKCDFOk0z6Pbxj2P-15" edge="1">
          <mxGeometry width="50" height="50" relative="1" as="geometry">
            <mxPoint x="230" y="490" as="sourcePoint" />
            <mxPoint x="460" y="560" as="targetPoint" />
          </mxGeometry>
        </mxCell>
        <mxCell id="yi-RhL8jNGNwUk6cOiht-2" value="&lt;br&gt;&lt;span style=&quot;color: rgb(32, 33, 36); font-family: arial, sans-serif; text-align: left; background-color: rgb(248, 249, 250);&quot;&gt;&lt;font style=&quot;font-size: 21px;&quot;&gt;Product View&lt;/font&gt;&lt;/span&gt;" style="ellipse;whiteSpace=wrap;html=1;" parent="1" vertex="1">
          <mxGeometry x="980" y="40" width="120" height="80" as="geometry" />
        </mxCell>
        <mxCell id="yi-RhL8jNGNwUk6cOiht-6" value="" style="endArrow=classic;html=1;rounded=0;entryX=1;entryY=0.5;entryDx=0;entryDy=0;exitX=0;exitY=0.3333333333333333;exitDx=0;exitDy=0;exitPerimeter=0;" parent="1" source="D19-k-0pD9ICi_6Iwy2H-10" target="yi-RhL8jNGNwUk6cOiht-2" edge="1">
          <mxGeometry width="50" height="50" relative="1" as="geometry">
            <mxPoint x="1270" y="450" as="sourcePoint" />
            <mxPoint x="1260" y="360" as="targetPoint" />
          </mxGeometry>
        </mxCell>
        <mxCell id="yi-RhL8jNGNwUk6cOiht-7" value="&lt;font style=&quot;font-size: 20px;&quot;&gt;Buy Product&lt;/font&gt;" style="ellipse;whiteSpace=wrap;html=1;" parent="1" vertex="1">
          <mxGeometry x="1020" y="420" width="120" height="80" as="geometry" />
        </mxCell>
        <mxCell id="yi-RhL8jNGNwUk6cOiht-8" value="" style="endArrow=classic;html=1;rounded=0;exitX=0;exitY=0.3333333333333333;exitDx=0;exitDy=0;exitPerimeter=0;entryX=1;entryY=1;entryDx=0;entryDy=0;" parent="1" source="D19-k-0pD9ICi_6Iwy2H-10" target="yi-RhL8jNGNwUk6cOiht-7" edge="1">
          <mxGeometry width="50" height="50" relative="1" as="geometry">
            <mxPoint x="1270" y="460" as="sourcePoint" />
            <mxPoint x="990" y="270" as="targetPoint" />
          </mxGeometry>
        </mxCell>
        <mxCell id="yi-RhL8jNGNwUk6cOiht-9" value="&lt;br&gt;&lt;font style=&quot;font-size: 20px;&quot;&gt;Pay The&lt;br&gt;&amp;nbsp;Bill&lt;/font&gt;" style="ellipse;whiteSpace=wrap;html=1;" parent="1" vertex="1">
          <mxGeometry x="870" y="320" width="120" height="80" as="geometry" />
        </mxCell>
        <mxCell id="yi-RhL8jNGNwUk6cOiht-11" value="&lt;font style=&quot;font-size: 20px;&quot;&gt;Provide Information&lt;/font&gt;" style="ellipse;whiteSpace=wrap;html=1;" parent="1" vertex="1">
          <mxGeometry x="950" y="530" width="125" height="80" as="geometry" />
        </mxCell>
        <mxCell id="yi-RhL8jNGNwUk6cOiht-12" value="" style="endArrow=classic;html=1;rounded=0;exitX=0;exitY=0.3333333333333333;exitDx=0;exitDy=0;exitPerimeter=0;entryX=1;entryY=0.5;entryDx=0;entryDy=0;" parent="1" source="D19-k-0pD9ICi_6Iwy2H-10" target="yi-RhL8jNGNwUk6cOiht-11" edge="1">
          <mxGeometry width="50" height="50" relative="1" as="geometry">
            <mxPoint x="955" y="530" as="sourcePoint" />
            <mxPoint x="1005" y="480" as="targetPoint" />
          </mxGeometry>
        </mxCell>
        <mxCell id="yi-RhL8jNGNwUk6cOiht-13" value="&lt;font style=&quot;font-size: 20px;&quot;&gt;Customer Information Management&lt;/font&gt;" style="ellipse;whiteSpace=wrap;html=1;" parent="1" vertex="1">
          <mxGeometry x="525" y="130" width="155" height="110" as="geometry" />
        </mxCell>
        <mxCell id="yi-RhL8jNGNwUk6cOiht-14" value="" style="endArrow=classic;html=1;rounded=0;entryX=0;entryY=0.5;entryDx=0;entryDy=0;" parent="1" target="yi-RhL8jNGNwUk6cOiht-13" edge="1">
          <mxGeometry width="50" height="50" relative="1" as="geometry">
            <mxPoint x="220" y="160" as="sourcePoint" />
            <mxPoint x="535" y="300" as="targetPoint" />
          </mxGeometry>
        </mxCell>
        <mxCell id="yi-RhL8jNGNwUk6cOiht-23" value="" style="endArrow=block;endSize=16;endFill=0;html=1;rounded=0;" parent="1" edge="1">
          <mxGeometry width="160" relative="1" as="geometry">
            <mxPoint x="200" y="480" as="sourcePoint" />
            <mxPoint x="200" y="250" as="targetPoint" />
          </mxGeometry>
        </mxCell>
        <mxCell id="yi-RhL8jNGNwUk6cOiht-27" value="" style="endArrow=block;dashed=1;endFill=0;endSize=12;html=1;rounded=0;exitX=1;exitY=0.5;exitDx=0;exitDy=0;entryX=0;entryY=0.5;entryDx=0;entryDy=0;" parent="1" source="a8G3BKCDFOk0z6Pbxj2P-12" target="yi-RhL8jNGNwUk6cOiht-9" edge="1">
          <mxGeometry width="160" relative="1" as="geometry">
            <mxPoint x="680" y="290" as="sourcePoint" />
            <mxPoint x="900" y="440" as="targetPoint" />
          </mxGeometry>
        </mxCell>
        <mxCell id="yi-RhL8jNGNwUk6cOiht-30" value="&amp;lt;&amp;lt; &lt;span style=&quot;font-size: 14px;&quot;&gt;extend&lt;/span&gt;&amp;gt;&amp;gt;" style="edgeLabel;html=1;align=center;verticalAlign=middle;resizable=0;points=[];" parent="yi-RhL8jNGNwUk6cOiht-27" vertex="1" connectable="0">
          <mxGeometry x="0.1206" relative="1" as="geometry">
            <mxPoint as="offset" />
          </mxGeometry>
        </mxCell>
        <mxCell id="yi-RhL8jNGNwUk6cOiht-31" value="" style="endArrow=block;dashed=1;endFill=0;endSize=12;html=1;rounded=0;exitX=1;exitY=0.5;exitDx=0;exitDy=0;entryX=0;entryY=0.5;entryDx=0;entryDy=0;" parent="1" source="a8G3BKCDFOk0z6Pbxj2P-12" target="yi-RhL8jNGNwUk6cOiht-11" edge="1">
          <mxGeometry width="160" relative="1" as="geometry">
            <mxPoint x="660" y="200" as="sourcePoint" />
            <mxPoint x="870" y="495" as="targetPoint" />
          </mxGeometry>
        </mxCell>
        <mxCell id="yi-RhL8jNGNwUk6cOiht-32" value="&amp;lt;&amp;lt;&amp;nbsp;&lt;font style=&quot;font-size: 14px;&quot;&gt;Include&amp;nbsp;&lt;/font&gt;&amp;gt;&amp;gt;" style="edgeLabel;html=1;align=center;verticalAlign=middle;resizable=0;points=[];" parent="yi-RhL8jNGNwUk6cOiht-31" vertex="1" connectable="0">
          <mxGeometry x="0.1206" relative="1" as="geometry">
            <mxPoint as="offset" />
          </mxGeometry>
        </mxCell>
        <mxCell id="yi-RhL8jNGNwUk6cOiht-33" value="" style="endArrow=block;dashed=1;endFill=0;endSize=12;html=1;rounded=0;exitX=0;exitY=0.5;exitDx=0;exitDy=0;entryX=1;entryY=1;entryDx=0;entryDy=0;" parent="1" source="yi-RhL8jNGNwUk6cOiht-7" target="yi-RhL8jNGNwUk6cOiht-9" edge="1">
          <mxGeometry width="160" relative="1" as="geometry">
            <mxPoint x="730" y="65" as="sourcePoint" />
            <mxPoint x="770" y="380" as="targetPoint" />
          </mxGeometry>
        </mxCell>
        <mxCell id="yi-RhL8jNGNwUk6cOiht-34" value="&amp;lt;&amp;lt;&amp;nbsp;&lt;font style=&quot;font-size: 14px;&quot;&gt;Include&amp;nbsp;&lt;/font&gt;&amp;gt;&amp;gt;" style="edgeLabel;html=1;align=center;verticalAlign=middle;resizable=0;points=[];" parent="yi-RhL8jNGNwUk6cOiht-33" vertex="1" connectable="0">
          <mxGeometry x="0.1206" relative="1" as="geometry">
            <mxPoint as="offset" />
          </mxGeometry>
        </mxCell>
        <mxCell id="24Et3UsYtspu4RIeQ8T7-4" value="&lt;font style=&quot;font-size: 20px;&quot;&gt;Register and login&lt;/font&gt;" style="ellipse;whiteSpace=wrap;html=1;" parent="1" vertex="1">
          <mxGeometry x="710" y="10" width="160" height="100" as="geometry" />
        </mxCell>
        <mxCell id="24Et3UsYtspu4RIeQ8T7-7" value="" style="endArrow=classic;html=1;rounded=0;entryX=0.978;entryY=0.342;entryDx=0;entryDy=0;entryPerimeter=0;exitX=0;exitY=0.3333333333333333;exitDx=0;exitDy=0;exitPerimeter=0;" parent="1" source="D19-k-0pD9ICi_6Iwy2H-10" target="24Et3UsYtspu4RIeQ8T7-4" edge="1">
          <mxGeometry width="50" height="50" relative="1" as="geometry">
            <mxPoint x="1040" y="575" as="sourcePoint" />
            <mxPoint x="1090" y="525" as="targetPoint" />
          </mxGeometry>
        </mxCell>
        <mxCell id="24Et3UsYtspu4RIeQ8T7-8" value="&lt;font style=&quot;font-size: 19px;&quot;&gt;add edit delete employee&lt;/font&gt;" style="ellipse;whiteSpace=wrap;html=1;" parent="1" vertex="1">
          <mxGeometry x="770" y="580" width="140" height="90" as="geometry" />
        </mxCell>
        <mxCell id="24Et3UsYtspu4RIeQ8T7-9" value="" style="endArrow=block;dashed=1;endFill=0;endSize=12;html=1;rounded=0;entryX=0;entryY=0.5;entryDx=0;entryDy=0;exitX=1;exitY=0.5;exitDx=0;exitDy=0;" parent="1" source="a8G3BKCDFOk0z6Pbxj2P-13" target="24Et3UsYtspu4RIeQ8T7-8" edge="1">
          <mxGeometry width="160" relative="1" as="geometry">
            <mxPoint x="590" y="330" as="sourcePoint" />
            <mxPoint x="750" y="330" as="targetPoint" />
          </mxGeometry>
        </mxCell>
        <mxCell id="24Et3UsYtspu4RIeQ8T7-10" value="&lt;font style=&quot;font-size: 19px;&quot;&gt;add edit delete customer&lt;/font&gt;" style="ellipse;whiteSpace=wrap;html=1;" parent="1" vertex="1">
          <mxGeometry x="777.5" y="150" width="125" height="100" as="geometry" />
        </mxCell>
        <mxCell id="24Et3UsYtspu4RIeQ8T7-11" value="" style="endArrow=block;dashed=1;endFill=0;endSize=12;html=1;rounded=0;exitX=1;exitY=0.5;exitDx=0;exitDy=0;entryX=0;entryY=0.5;entryDx=0;entryDy=0;" parent="1" source="yi-RhL8jNGNwUk6cOiht-13" target="24Et3UsYtspu4RIeQ8T7-10" edge="1">
          <mxGeometry width="160" relative="1" as="geometry">
            <mxPoint x="635" y="305" as="sourcePoint" />
            <mxPoint x="740" y="120" as="targetPoint" />
          </mxGeometry>
        </mxCell>
        <mxCell id="ElGYjmWTjEC-U6gcqnB3-4" value="" style="endArrow=classic;html=1;rounded=0;entryX=0;entryY=0.5;entryDx=0;entryDy=0;exitX=1;exitY=0.3333333333333333;exitDx=0;exitDy=0;exitPerimeter=0;" edge="1" parent="1" source="D19-k-0pD9ICi_6Iwy2H-1" target="24Et3UsYtspu4RIeQ8T7-4">
          <mxGeometry width="50" height="50" relative="1" as="geometry">
            <mxPoint x="710" y="320" as="sourcePoint" />
            <mxPoint x="760" y="270" as="targetPoint" />
          </mxGeometry>
        </mxCell>
      </root>
    </mxGraphModel>
  </diagram>
</mxfile>
